<?xml version="1.0" encoding="utf-8"?>
<!DOCTYPE svg PUBLIC "-//W3C//DTD SVG 1.0//EN" "http://www.w3.org/TR/2001/REC-SVG-20010904/DTD/svg10.dtd">
<svg version="1.0"
    xmlns="http://www.w3.org/2000/svg"
    width="800px"
    height="800px"
    viewBox="0 0 64 64"
    xml:space="preserve">

  <!-- Flip Left to Right -->
  <g transform="translate(64,0) scale(-1,1)">

    <g>
      <g>
        <path fill="#F76D57" d="M2,15.998v30c0,1.104,0.896,2,2,2h12v-4H7c-0.553,0-1-0.447-1-1v-24c0-0.553,0.447-1,1-1h9v-4H4
          C2.896,13.998,2,14.893,2,15.998z"/>
        <path fill="#F76D57" d="M18,60c0,1.105,0.896,2,2,2h36c1.104,0,2-0.895,2-2v-4H18V60z"/>
        <path fill="#F76D57" d="M56,15.998c-1.588,0-3.063-0.469-4.309-1.268c-1.099,1.381-2.79,2.268-4.691,2.268
          c-1.326,0-2.548-0.436-3.541-1.164c-1.43,1.338-3.346,2.164-5.459,2.164c-2.191,0-4.175-0.883-5.62-2.311
          c-1.259,0.826-2.762,1.311-4.38,1.311c-2.748,0-5.171-1.387-6.611-3.498c-0.732,0.318-1.539,0.498-2.389,0.498
          c-0.342,0-0.674-0.035-1-0.09V54h40V15.998l0.354-0.354C57.609,15.875,56.819,15.998,56,15.998z"/>
      </g>

      <path fill="#F9EBB2" d="M56,13.998c-1.237,0-2.387-0.375-3.343-1.018c-0.671-0.451-1.242-1.037-1.685-1.715
        c-0.055,0.82-0.352,1.564-0.825,2.174c-0.731,0.941-1.862,1.559-3.147,1.559c-0.839,0-1.616-0.262-2.26-0.703
        c-0.594-0.408-1.065-0.975-1.369-1.635c-0.328,0.658-0.772,1.248-1.309,1.742c-1.069,0.988-2.493,1.596-4.062,1.596
        c-1.583,0-3.02-0.619-4.092-1.619c-0.498-0.467-0.917-1.014-1.233-1.625c-0.429,0.533-0.948,0.986-1.532,1.348
        c-0.915,0.564-1.989,0.896-3.143,0.896c-2.048,0-3.854-1.029-4.937-2.596c-0.412-0.596-0.715-1.27-0.89-1.994
        c-0.437,0.572-1.015,1.027-1.693,1.299c-0.459,0.184-0.956,0.291-1.48,0.291c-2.209,0-4-1.791-4-4s1.791-4,4-4
        c0.839,0,1.616,0.26,2.26,0.703c0.594,0.406,1.065,0.975,1.369,1.637c0.327-0.662,0.771-1.25,1.308-1.746
        C25.006,3.605,26.431,2.998,28,2.998c1.583,0,3.02,0.617,4.092,1.619c0.498,0.467,0.917,1.014,1.233,1.623
        c0.429-0.531,0.948-0.986,1.532-1.348C35.772,4.328,36.846,3.998,38,3.998
        c0.445,0,0.878,0.053,1.296,0.145c0.675,0.148,1.305,0.412,1.873,0.768
        c0.188-0.66,0.524-1.26,0.996-1.732c0.725-0.729,1.727-1.18,2.835-1.18
        c1.729,0,3.188,1.104,3.747,2.641c0.08,0.221,0.145,0.449,0.185,0.684
        c0.503,0.17,0.978,0.402,1.41,0.693c0.143-0.406,0.326-0.791,0.548-1.15
        c1.056-1.719,2.946-2.867,5.11-2.867c3.313,0,6,2.686,6,6
        C62,11.311,59.313,13.998,56,13.998z"/>

      <g>
        <path fill="#394240" d="M38,19.998c-0.553,0-1,0.447-1,1v26c0,0.553,0.447,1,1,1s1-0.447,1-1v-26
          C39,20.445,38.553,19.998,38,19.998z"/>
        <path fill="#394240" d="M48,19.998c-0.553,0-1,0.447-1,1v26c0,0.553,0.447,1,1,1s1-0.447,1-1v-26
          C49,20.445,48.553,19.998,48,19.998z"/>
        <path fill="#394240" d="M28,19.998c-0.553,0-1,0.447-1,1v26c0,0.553,0.447,1,1,1s1-0.447,1-1v-26
          C29,20.445,28.553,19.998,28,19.998z"/>
      </g>

      <path opacity="0.2" d="M16,17.998H7c-0.553,0-1,0.447-1,1v24c0,0.553,0.447,1,1,1h9v4H4
        c-1.104,0-2-0.896-2-2v-30c0-1.105,0.896-2,2-2h12V17.998z"/>
      <path opacity="0.2" d="M58,60c0,1.105-0.896,2-2,2H20
        c-1.104,0-2-0.895-2-2v-4h40V60z"/>

    </g>

  </g>
</svg>